<svg width="88" height="88" viewBox="0 0 88 88" fill="none" xmlns="http://www.w3.org/2000/svg">
<path d="M73.3718 58.8504L53.6363 54.2521L52.8473 50.9559C56.8628 48.1252 59.6351 43.4616 60.0935 38.1004C63.8593 35.9749 64.8928 30.8865 62.5229 27.3239C66.7915 24.9983 69.2162 21.1941 68.5494 16.3938C67.8172 11.1212 63.7447 6.79583 57.0826 4.21485C49.5488 1.29594 38.6109 0.891398 33.348 5.26637C31.7499 6.59496 30.0168 6.94772 28.3409 7.28877C26.5579 7.65159 24.5372 8.0629 23.1236 9.73683C21.6989 11.4241 21.2769 13.8804 21.755 17.7009C22.1777 21.0785 24.4377 24.3338 26.1958 26.4146C23.092 29.768 23.6865 35.3887 27.5563 37.8855C27.9508 43.2398 30.652 47.9172 34.6033 50.8L34.1706 54.2969L14.6282 58.8504C10.1138 59.8602 6.89331 63.8746 6.89331 68.5069V86H81.1068V68.5067C81.1067 63.8809 77.8924 59.8615 73.3718 58.8504ZM26.9038 12.929C27.2084 12.5683 28.2378 12.3589 29.3276 12.1371C31.2807 11.7396 33.9557 11.1952 36.5108 9.07105C39.7978 6.33834 48.5754 6.22488 55.2952 8.82829C58.1402 9.93061 63.0088 12.4676 63.6487 17.0744C64.1241 20.4975 61.5295 22.3967 59.4294 23.3585C58.4539 21.1891 56.5717 19.4657 54.2071 18.7627L53.7672 18.6317L53.3098 18.6674C49.4699 18.9668 45.5538 17.9478 42.2369 15.5273L40.5421 14.2909L39.1546 15.0749C36.6935 16.4657 34.0251 17.8457 33.3146 18.0982C31.0643 18.4416 29.3256 19.5117 28.359 21.043C27.5182 19.7585 26.8229 18.3548 26.6643 17.0863C26.2724 13.9559 26.7486 13.1129 26.9038 12.929ZM32.4539 36.5243V34.511L30.7328 33.9613C29.805 33.6649 29.157 32.6843 29.157 31.5767C29.157 30.469 29.805 29.4883 30.7327 29.1922L32.4539 28.6425V24.0637C32.4539 23.4977 33.018 23.1329 34.1303 22.9793C34.4593 22.934 35.406 22.803 40.2203 20.1472C44.113 22.7011 48.6163 23.8745 53.1572 23.6352C54.3842 24.1603 55.2128 25.3886 55.2128 26.7439V28.7063L57.1238 29.1529C58.1198 29.3856 58.8426 30.405 58.8426 31.5769C58.8426 32.7486 58.1198 33.7682 57.1238 34.0009L55.2128 34.4473V36.5244C55.2128 43.3447 50.108 48.8932 43.8333 48.8932C37.5588 48.8932 32.4539 43.3445 32.4539 36.5243ZM48.2931 53.1829L49.0303 56.2626L43.9452 74.2418L38.8968 56.3924L39.2969 53.1597C42.2239 54.0591 45.3559 54.0689 48.2931 53.1829ZM11.8407 81.0524V68.5069C11.8407 66.17 13.4338 64.184 15.715 63.677L25.167 61.4749L22.2941 68.458L27.3537 71.2688L27.2004 76.3237L32.2602 81.0524H11.8407ZM39.506 81.0524L32.2133 74.2368L32.3899 68.4071L28.5439 66.2702L31.0838 60.0965L34.5726 59.2836L40.7292 81.0524H39.506ZM47.1604 81.0524L53.3239 59.2595L56.7943 60.068L59.346 66.2701L55.4999 68.4069L55.6765 74.2366L48.3838 81.0522H47.1604V81.0524ZM76.1591 81.0524H55.6297L60.6895 76.3237L60.5363 71.2688L65.5959 68.458L62.7115 61.4465C63.0954 61.5359 71.1076 63.4026 72.285 63.6769C74.5662 64.1838 76.1593 66.1698 76.1593 68.5067V81.0524H76.1591Z" fill="#07A7EB"/>
</svg>
