<svg width="88" height="88" viewBox="0 0 88 88" fill="none" xmlns="http://www.w3.org/2000/svg">
<path d="M87 21.1688V6.04375H26.2791V1.00049H11.1539V6.04358H1V21.1687H11.1539V66.8313H1V86.9995H36.433V66.8313H26.2791V21.1688H61.7891V31.2589H41.6167V61.7842H87V31.2589H66.828V21.1688H87ZM16.1929 6.03955H21.2401V66.8313H16.1929V6.03955ZM6.03906 16.1296V11.0825H11.154V16.1296H6.03906ZM31.3939 71.8704V81.9606H6.03906V71.8704H31.3939ZM81.9609 36.2979V56.7455H46.6556V36.2979H81.9609ZM26.2791 16.1298V11.0826H81.9609V16.1298H26.2791Z" fill="#07A7EB"/>
<path d="M56.7416 41.3424H51.7025V51.6992H56.7416V41.3424Z" fill="#07A7EB"/>
<path d="M66.828 41.3424H61.7889V51.6992H66.828V41.3424Z" fill="#07A7EB"/>
<path d="M76.9145 41.3424H71.8754V51.6992H76.9145V41.3424Z" fill="#07A7EB"/>
</svg>
