<svg width="88" height="88" viewBox="0 0 88 88" fill="none" xmlns="http://www.w3.org/2000/svg">
<path d="M78.2571 69.7856C77.54 70.1211 76.8667 70.437 76.0816 70.6825C79.854 66.655 82.0075 61.3198 82.0075 55.6588V33.9631H74.2319V18.3901H53.7588V33.9631H45.9832V50.7393H32.1238V37.1399H35.7332V32.2179H4.62853V37.1399H8.23801V68.879C6.76748 68.337 4.94451 67.9141 2.29999 67.9141V72.8361C5.25077 72.8361 6.64352 73.4899 8.25502 74.2434C10.1266 75.1209 12.251 76.1174 16.3004 76.1174C20.3474 76.1174 22.4718 75.1209 24.3458 74.2434C25.9573 73.4899 27.35 72.8361 30.3008 72.8361C33.254 72.8361 34.6443 73.4899 36.2583 74.2434C38.1298 75.1209 40.2542 76.1174 44.3012 76.1174C48.3482 76.1174 50.4726 75.1209 52.3442 74.2434C53.9557 73.4899 55.3484 72.8361 58.3016 72.8361C61.2524 72.8361 62.6451 73.4899 64.2566 74.2434C66.1282 75.1209 68.2526 76.1174 72.2996 76.1174C76.349 76.1174 78.4734 75.1209 80.345 74.2434C81.9565 73.4899 83.3492 72.8361 86.3024 72.8361V67.9141C82.253 67.9141 80.1311 68.9082 78.2571 69.7856ZM47.2398 10.5173L32.3863 2.45001V8.07205H2.29999V12.9625L32.3863 12.96V18.5821L47.2398 10.5173ZM17.6372 46.1916H22.5617V41.2695H17.6372V46.1916ZM66.4904 58.6582H71.4148V53.7362H66.4904V58.6582ZM72.2996 81.5304C69.3488 81.5304 67.9561 80.8766 66.3446 80.1231C64.4706 79.2456 62.3486 78.2491 58.2992 78.2491C54.2498 78.2491 52.1278 79.2456 50.2538 80.1231C48.6423 80.8766 47.2496 81.5304 44.2988 81.5304C41.3456 81.5304 39.9552 80.8766 38.3413 80.1231C36.4697 79.2456 34.3454 78.2491 30.2984 78.2491C26.2514 78.2491 24.127 79.2456 22.253 80.1231C20.6415 80.8766 19.2487 81.5304 16.298 81.5304C13.3472 81.5304 11.9544 80.8766 10.3429 80.1231C8.47135 79.2456 6.34698 78.2491 2.29999 78.2491V83.1711C5.25077 83.1711 6.64352 83.8225 8.25502 84.5784C10.1266 85.4559 12.251 86.45 16.3004 86.45C20.3474 86.45 22.4718 85.4559 24.3458 84.5784C25.9573 83.8225 27.35 83.1711 30.3008 83.1711C33.254 83.1711 34.6443 83.8225 36.2583 84.5784C38.1298 85.4559 40.2542 86.45 44.3012 86.45C48.3482 86.45 50.4726 85.4559 52.3442 84.5784C53.9557 83.8225 55.3484 83.1711 58.3016 83.1711C61.2524 83.1711 62.6451 83.8225 64.2566 84.5784C66.1282 85.4559 68.2526 86.45 72.2996 86.45C76.349 86.45 78.4734 85.4559 80.345 84.5784C81.9565 83.8225 83.3492 83.1711 86.3024 83.1711V78.2491C82.253 78.2491 80.1311 79.2456 78.2571 80.1231C76.6456 80.8766 75.2528 81.5304 72.2996 81.5304ZM77.0855 43.8436H66.4588V38.8875H77.0855V43.8436ZM58.6808 23.3121H69.3099V33.9412H58.6808V23.3121ZM50.9076 38.8851H61.5368V45.5231L57.8641 50.7368H50.9076V38.8851ZM13.1576 37.1399H27.2042V50.7393H13.1576V37.1399ZM58.3016 67.9141C54.2522 67.9141 52.1303 68.9082 50.2562 69.7856C48.6447 70.5416 47.252 71.193 44.3012 71.193C41.348 71.193 39.9577 70.5416 38.3437 69.7856C36.4722 68.9082 34.3478 67.9141 30.3008 67.9141C26.2538 67.9141 24.1294 68.9082 22.2554 69.7856C20.6439 70.5416 19.2512 71.193 16.3004 71.193C15 71.193 14.0035 71.0666 13.16 70.86V55.6588H60.4187L65.2727 48.7632H77.0855V55.6564C77.0855 61.1618 74.2417 67.2918 68.588 70.6996C67.7738 70.4492 67.0835 70.1259 66.347 69.7808C64.4706 68.9082 62.3486 67.9141 58.3016 67.9141Z" fill="#07A7EB"/>
</svg>
