<svg width="88" height="88" viewBox="0 0 88 88" fill="none" xmlns="http://www.w3.org/2000/svg">
<g clip-path="url(#clip0)">
<path d="M87 14.6302L44 1.19257L1 14.6302V33.6898H3.52941V86.8074H84.4706V33.6898H87V14.6302ZM6.05882 18.3494L44 6.4927L81.9412 18.3494V28.631H6.05882V18.3494ZM69.2941 81.7486H59.1765V71.631H64.2353V51.3957C62.7195 51.3957 29.8646 51.3957 28.8235 51.3957V66.5721H23.7647V81.7486H18.7059V43.8074H69.2941V81.7486ZM49.0588 66.5721V56.4545H59.1765V66.5721H49.0588ZM44 66.5721H33.8824V56.4545H44V66.5721ZM38.9412 71.631V81.7486H28.8235V71.631H38.9412ZM44 71.631H54.1176V81.7486H44V71.631ZM79.4118 81.7486H74.3529V38.7486H13.6471V81.7486H8.58824V33.6898H79.4118V81.7486Z" fill="#07A7EB"/>
<path d="M33.8824 16.4897H54.1177V21.5486H33.8824V16.4897Z" fill="#07A7EB"/>
</g>
<defs>
<clipPath id="clip0">
<rect width="86" height="86" fill="white" transform="translate(1 1)"/>
</clipPath>
</defs>
</svg>
