<svg width="88" height="88" viewBox="0 0 88 88" fill="none" xmlns="http://www.w3.org/2000/svg">
<path fill-rule="evenodd" clip-rule="evenodd" d="M75.7897 81.0983C76.3341 80.1112 76.7054 79.0177 76.8676 77.8576L86.0188 77.8586L86.0198 65.886C86.0198 63.3315 85.0259 60.9303 83.2199 59.1243C81.4139 57.3183 79.0128 56.3234 76.4591 56.3234H74.2515L66.8946 41.0145L27.9043 41.0105L18.3818 56.3176L11.5428 56.3166C11.5418 56.3166 11.5418 56.3166 11.5409 56.3166C8.98726 56.3166 6.5861 57.3115 4.7801 59.1165C2.9741 60.9215 1.97923 63.3227 1.97826 65.8773L1.97728 77.8488L11.8321 77.8498C11.9904 78.9971 12.3559 80.0936 12.9091 81.0973H1.98021V86.0228H86.0227V81.0983H75.7897ZM44 12.6501C45.6526 12.6501 46.9914 13.989 46.9914 15.6415C46.9914 17.2941 45.6526 18.633 44 18.633C42.3474 18.633 41.0086 17.2941 41.0086 15.6415C41.0086 13.9899 42.3474 12.6501 44 12.6501ZM44 1.97729C46.4833 1.97729 48.9313 2.61448 51.0891 3.84486C55.7019 6.47275 58.1802 11.2399 58.1802 16.4937C58.1802 24.2728 49.9262 32.2317 44.4847 36.8767L44 37.291L43.5153 36.8767C38.0738 32.2317 29.8198 24.2728 29.8198 16.4937C29.8198 11.2399 32.2981 6.47275 36.9109 3.84486C39.0687 2.61448 41.5168 1.97729 44 1.97729ZM44 30.8254C47.5954 27.4802 53.3281 21.4622 53.3281 16.4937C53.3281 11.0904 49.4796 6.82945 44 6.82945C38.5204 6.82945 34.6719 11.0904 34.6719 16.4937C34.6719 21.4612 40.4056 27.4802 44 30.8254ZM49.8705 45.937L63.7966 45.9389L68.7876 56.3225L49.8695 56.3205L49.8705 45.937ZM30.6397 45.935L44.946 45.937L44.945 56.3205L24.1809 56.3185L30.6397 45.935ZM21.2129 81.0846C21.2129 81.0846 21.212 81.0846 21.2129 81.0846C19.9982 81.0846 18.8558 80.6116 17.9967 79.7526C17.1377 78.8935 16.6647 77.7511 16.6647 76.5364C16.6647 75.3216 17.1387 74.1802 17.9967 73.3211C18.8558 72.4621 19.9972 71.9891 21.212 71.9891C22.4267 71.9891 23.5691 72.4621 24.4272 73.3211C25.2862 74.1802 25.7592 75.3226 25.7592 76.5364C25.7602 79.044 23.7196 81.0846 21.2129 81.0846ZM29.51 81.0983C30.0553 80.1103 30.4286 79.0147 30.5908 77.8528L58.1099 77.8557C58.2721 79.0167 58.6435 80.1112 59.1878 81.0983H29.51ZM67.4888 81.0885C66.273 81.0885 65.1316 80.6155 64.2726 79.7565C63.4135 78.8975 62.9405 77.755 62.9415 76.5412C62.9415 74.0336 64.9821 71.994 67.4888 71.994C67.4888 71.994 67.4888 71.994 67.4897 71.994C69.9974 71.995 72.037 74.0346 72.037 76.5422C72.036 79.0489 69.9964 81.0885 67.4888 81.0885ZM67.4897 67.0695C67.4888 67.0695 67.4897 67.0695 67.4888 67.0695C63.5445 67.0695 60.1563 69.4941 58.7343 72.9312L29.9761 72.9273C29.5061 71.7858 28.8103 70.7382 27.9112 69.8391C26.1228 68.0497 23.7441 67.0646 21.2139 67.0637H21.2129C18.6838 67.0637 16.3051 68.0488 14.5167 69.8372C13.6176 70.7363 12.9218 71.7839 12.4517 72.9253L6.90371 72.9244L6.90469 65.8763C6.90469 64.6371 7.38746 63.4732 8.2631 62.5965C9.13873 61.7209 10.3036 61.2381 11.5418 61.2381L76.4582 61.246C77.6973 61.246 78.8613 61.7287 79.7379 62.6044C80.6135 63.48 81.0963 64.6449 81.0963 65.8841L81.0953 72.9322L76.2461 72.9312C74.8232 69.4961 71.435 67.0705 67.4897 67.0695Z" fill="#07A7EB"/>
</svg>
