<svg width="88" height="88" viewBox="0 0 88 88" fill="none" xmlns="http://www.w3.org/2000/svg">
<path d="M82 1.16626H6V66.931H46.5294V86.8336L56.647 80.0885L66.7647 86.8336V66.931H82V1.16626ZM55.6682 64.3533C50.6127 63.8825 46.5294 59.58 46.5294 54.2839C46.5294 48.705 51.0682 44.1663 56.647 44.1663C62.2259 44.1663 66.7647 48.705 66.7647 54.2839C66.7647 60.2113 61.6536 64.9282 55.6682 64.3533ZM61.7059 77.3813L56.647 74.0088L51.5882 77.3813V68.5999C54.8325 69.7469 58.4697 69.744 61.7059 68.5999V77.3813ZM76.9412 61.8721H69.7862C71.0812 59.6385 71.8235 57.0464 71.8235 54.2839C71.8235 45.9156 65.0154 39.1074 56.647 39.1074C48.2787 39.1074 41.4706 45.9156 41.4706 54.2839C41.4706 57.0464 42.2129 59.6385 43.5079 61.8721H11.0588V6.22508H76.9412V61.8721Z" fill="#07A7EB"/>
<path d="M16.1765 11.2839H71.8235V16.3428H16.1765V11.2839Z" fill="#07A7EB"/>
<path d="M16.1765 21.4016H71.8235V26.4604H16.1765V21.4016Z" fill="#07A7EB"/>
<path d="M16.1765 31.5192H41.4706V36.578H16.1765V31.5192Z" fill="#07A7EB"/>
<path d="M16.1765 41.6368H33.8823V46.6957H16.1765V41.6368Z" fill="#07A7EB"/>
<path d="M16.1765 51.7545H31.3529V56.8133H16.1765V51.7545Z" fill="#07A7EB"/>
</svg>
