<svg width="88" height="88" viewBox="0 0 88 88" fill="none" xmlns="http://www.w3.org/2000/svg">
<path d="M4 4V84H55.7647V19.496L40.2687 4L4 4ZM41.6471 12.0334L47.7313 18.1176H41.6471V12.0334ZM8.70588 79.2941V8.70588H36.9412V22.8235H51.0588V79.2941H8.70588Z" fill="#07A7EB"/>
<path d="M76.9412 13.4118H74.5882V4H60.4706V70.4637L67.5294 83.8755L74.5882 70.4637V18.1177H76.9412C78.2387 18.1177 79.2941 19.1732 79.2941 20.4706V36.9412H84V20.4706C84 16.5784 80.8336 13.4118 76.9412 13.4118ZM69.8823 8.70588V13.4118H65.1765V8.70588H69.8823ZM65.1765 55.7647H69.8823V60.1569H65.1765V55.7647ZM67.5294 73.7716L65.1765 69.301V64.8628H69.8823V69.301L67.5294 73.7716ZM69.8823 51.0588H65.1765V18.1177H69.8823V51.0588Z" fill="#07A7EB"/>
<path d="M13.4118 32.2353H34.5882V36.9412H13.4118V32.2353Z" fill="#07A7EB"/>
<path d="M13.4118 22.8235H27.5294V27.5294H13.4118V22.8235Z" fill="#07A7EB"/>
<path d="M13.4118 41.6471H46.3529V46.353H13.4118V41.6471Z" fill="#07A7EB"/>
<path d="M13.4118 51.0588H46.3529V55.7647H13.4118V51.0588Z" fill="#07A7EB"/>
<path d="M13.4118 74.5882H46.3529V60.4706H13.4118V74.5882ZM18.1176 65.1765H41.6471V69.8823H18.1176V65.1765Z" fill="#07A7EB"/>
</svg>
