<svg width="88" height="88" viewBox="0 0 88 88" fill="none" xmlns="http://www.w3.org/2000/svg">
<g clip-path="url(#clip0)">
<path d="M8.56041 51.5604V46.5216C4.39281 46.5216 1.0022 49.9122 1.0022 54.0798C1.0022 58.2474 4.39281 61.638 8.56041 61.638H11.0798V87H76.9202V61.638H79.4396C83.6072 61.638 86.9978 58.2474 86.9978 54.0798C86.9978 49.9122 83.6072 46.5216 79.4396 46.5216V51.5604C80.8288 51.5604 81.959 52.6906 81.959 54.0798C81.959 55.1586 81.2761 56.0785 80.3209 56.437L70.4055 46.5216H66.8426V41.4828H69.362C73.5296 41.4828 76.9202 38.0922 76.9202 33.9246C76.9202 29.757 73.5296 26.3664 69.362 26.3664V31.4052C70.7512 31.4052 71.8814 32.5354 71.8814 33.9246C71.8814 35.0034 71.1985 35.9233 70.2433 36.2817L60.3279 26.3664H56.765V21.3276H59.2844C63.452 21.3276 66.8426 17.9369 66.8426 13.7693C66.8426 9.60175 63.452 6.21113 59.2844 6.21113V11.2499C60.6736 11.2499 61.8038 12.3801 61.8038 13.7693C61.8038 15.1585 60.6736 16.2887 59.2844 16.2887H59.2706L44 1L28.7294 16.2887H28.7156C27.3264 16.2887 26.1962 15.1585 26.1962 13.7693C26.1962 12.3801 27.3264 11.2499 28.7156 11.2499V6.21113C24.548 6.21113 21.1574 9.60175 21.1574 13.7693C21.1574 17.9369 24.548 21.3276 28.7156 21.3276H31.235V26.3664H27.6721L17.7567 36.2817C16.8015 35.9233 16.1186 35.0034 16.1186 33.9246C16.1186 32.5354 17.2488 31.4052 18.638 31.4052V26.3664C14.4704 26.3664 11.0798 29.757 11.0798 33.9246C11.0798 38.0922 14.4704 41.4828 18.638 41.4828H21.1574V46.5216H17.5945L7.67912 56.437C6.72393 56.0785 6.041 55.1586 6.041 54.0798C6.041 52.6906 7.17121 51.5604 8.56041 51.5604ZM21.1574 61.638V71.8836H16.1186V61.638H21.1574ZM51.5582 71.8836V66.6768H36.4418V71.8836H26.1962V61.638H61.8038V71.8836H51.5582ZM46.5194 81.9612H41.4806V71.7156H46.5194V81.9612ZM16.1186 76.9224H36.4418V81.9612H16.1186V76.9224ZM51.5582 81.9612V76.9224H71.8814V81.9612H51.5582ZM71.8814 71.8836H66.8426V61.638H71.8814V71.8836ZM44 8.13025L52.1489 16.2887H35.8511L44 8.13025ZM36.2738 21.3276H51.7262V26.3664H36.2738V21.3276ZM29.7592 31.4052H58.2409L63.2797 36.444H24.7204L29.7592 31.4052ZM26.1962 41.4828H61.8038V46.5216H26.1962V41.4828ZM19.6816 51.5604H68.3185L73.3573 56.5992H14.6428L19.6816 51.5604Z" fill="#07A7EB"/>
</g>
<defs>
<clipPath id="clip0">
<rect width="86" height="86" fill="white" transform="translate(1 1)"/>
</clipPath>
</defs>
</svg>
